# xmcd CD database file
#
# Track frame offsets:
#	150
#	18945
#	33603
#	52207
#	71971
#	92716
#	102773
#	120178
#	134818
#	148886
#	164828
#
# Disc length: 2531 seconds
#
# Revision: 1
# Processed by: cddbd v1.5.2PL0 Copyright (c) Steve Scherf et al.
# Submitted via: CDex 1.51
#
DISCID=a909e10b
DTITLE=Edu Falaschi - Almah
DYEAR=2006
DGENRE=Metal
TTITLE0=King
TTITLE1=Take Back Your Spell
TTITLE2=Forgotten Land
TTITLE3=Scary Zone
TTITLE4=Children Of Lies
TTITLE5=Break All The Welds
TTITLE6=Golden Empire
TTITLE7=Primitive Chaos
TTITLE8=Breathe
TTITLE9=Box Of Illusion
TTITLE10=Almah
EXTD=YEAR: 2006
EXTT0=
EXTT1=
EXTT2=
EXTT3=
EXTT4=
EXTT5=
EXTT6=
EXTT7=
EXTT8=
EXTT9=
EXTT10=
PLAYORDER=
